PathFileType  4	(X/Y/Z) C:\Users\antoi\Documents\MyRepositories\mobilecap\ResultsAnalysis
DataRate	CameraRate	NumFrames	NumMarkers	Units	OrigDataRate	OrigDataStartFrame	OrigNumFrames
100.0	100.0	4	51	mm	100.0	129	147
Frame#	Time	r_knee			r_shank_antsup			r_ankle			r_calc			r_5meta			r_toe			L_knee			L_shank_antsup			L_ankle			L_calc			L_5meta			L_toe			r_sh2			r_sh3			r_sh4			L_sh2			L_sh3			r_thigh1			r_thigh2			r_thigh3			r_thigh4			r_thigh5			L_thigh1			L_thigh2			L_thigh3			L_thigh4			r.ASIS			r.PSIS			L.ASIS			L.PSIS			C7			R_Shoulder			L_Shoulder			R_Sternum			L_Sternum			R_humerus			R_elbow_med			R_elbow_lat			R_forearm			R_wrist_radius			R_wrist_ulna			L_humerus			L_elbow_med			L_elbow_lat			L_forearm			L_wrist_radius			L_wrist_ulna			R_HJC			L_HJC			R_HJC_reg			L_HJC_reg			
		X1	Y1	Z1	X2	Y2	Z2	X3	Y3	Z3	X4	Y4	Z4	X5	Y5	Z5	X6	Y6	Z6	X7	Y7	Z7	X8	Y8	Z8	X9	Y9	Z9	X10	Y10	Z10	X11	Y11	Z11	X12	Y12	Z12	X13	Y13	Z13	X14	Y14	Z14	X15	Y15	Z15	X16	Y16	Z16	X17	Y17	Z17	X18	Y18	Z18	X19	Y19	Z19	X20	Y20	Z20	X21	Y21	Z21	X22	Y22	Z22	X23	Y23	Z23	X24	Y24	Z24	X25	Y25	Z25	X26	Y26	Z26	X27	Y27	Z27	X28	Y28	Z28	X29	Y29	Z29	X30	Y30	Z30	X31	Y31	Z31	X32	Y32	Z32	X33	Y33	Z33	X34	Y34	Z34	X35	Y35	Z35	X36	Y36	Z36	X37	Y37	Z37	X38	Y38	Z38	X39	Y39	Z39	X40	Y40	Z40	X41	Y41	Z41	X42	Y42	Z42	X43	Y43	Z43	X44	Y44	Z44	X45	Y45	Z45	X46	Y46	Z46	X47	Y47	Z47	X48	Y48	Z48	X49	Y49	Z49	X50	Y50	Z50	X51	Y51	Z51	

129	1.28000000	1395.42672	455.82293	-95.83149	1422.92425	389.50710	-74.66011	1467.67585	87.66862	-110.07195	1403.44101	52.40653	-145.43463	1576.54358	53.81159	-90.42568	1613.04427	83.36528	-146.69145	1083.56497	458.39398	-366.04335	1072.87056	389.98196	-370.32557	873.82871	143.78480	-338.15423	794.75167	146.11363	-292.28611	927.16145	46.21806	-350.24479	979.47527	51.07733	-295.02311	1447.15402	279.71632	-73.31290	1350.34048	372.04938	-82.35704	1366.81284	257.24551	-85.62399	1001.89943	445.36563	-378.09860	937.15150	342.07536	-377.78277	1356.47736	766.04830	-100.89815	1396.84023	659.26742	-97.27352	1363.84497	626.09303	-49.66702	1270.19708	736.38059	-32.92708	1305.04040	624.64551	-44.87285	1247.08095	707.85595	-400.29287	1204.85855	574.31934	-393.33549	1135.01544	741.40852	-400.42367	1100.88929	604.38086	-381.15679	1321.32925	888.26036	-109.59009	1133.06228	896.17675	-164.12126	1302.66299	873.19513	-368.98307	1124.37361	894.04584	-269.65250	1187.90190	1362.96823	-237.60798	1241.75907	1307.31028	-79.42726	1253.09893	1302.24610	-399.07766	1300.98277	1275.00392	-214.09853	1301.20181	1274.40350	-258.66106	1231.35426	1076.38669	18.05784	1184.18179	968.48252	-23.59132	1199.45043	995.02958	42.27432	1256.81194	889.32154	71.55535	1286.79778	774.43779	85.27432	1244.74057	765.51327	95.44693	1295.93189	1171.77756	-439.01499	1240.16717	955.32832	-417.39434	1264.98000	967.47042	-471.68965	1336.12913	881.64887	-471.22229	1376.32282	762.80633	-453.43211	1347.33957	746.65652	-473.00052	1257.31247	809.46163	-127.56046	1241.72540	802.82732	-327.14303	1261.18867	796.45204	-139.81480	1247.08565	792.99321	-311.11864	
130	1.29000000	1407.58609	456.74139	-95.34197	1433.53345	389.42110	-74.23670	1470.57223	87.09078	-110.37346	1404.48748	53.33330	-145.57652	1578.13457	50.38065	-90.45822	1615.70528	78.34280	-147.01939	1099.99967	457.13334	-366.32108	1087.28189	389.03037	-370.92769	881.29703	148.94495	-337.66428	803.09694	155.67764	-291.56882	929.26360	48.25332	-349.83385	981.79753	50.66881	-294.92704	1455.40597	279.15991	-73.14741	1360.60535	373.44497	-82.40961	1374.63050	258.40637	-85.86769	1017.93582	446.64041	-377.74061	950.03376	345.23050	-377.14197	1369.70495	767.59106	-99.32236	1409.77188	660.65657	-96.24575	1376.80380	627.43220	-48.75821	1283.41714	737.91683	-31.26334	1317.91114	626.13564	-43.91325	1261.14124	708.00986	-399.07715	1220.15152	573.97912	-393.16047	1148.85347	740.58988	-398.37496	1115.90825	603.14651	-380.35608	1334.91234	889.32950	-107.99256	1146.42308	897.02599	-163.28350	1316.26116	873.00952	-367.46627	1137.95217	894.04977	-268.97617	1200.49342	1363.57039	-233.46494	1255.70462	1306.29973	-75.96579	1265.26593	1304.00756	-395.84788	1313.88722	1275.60480	-210.99916	1313.99957	1275.34595	-255.55075	1247.24297	1074.54768	19.52247	1199.93662	966.74538	-22.51362	1215.82802	992.84813	43.34081	1272.86288	886.67819	71.41086	1302.16040	771.41143	84.11989	1260.19317	762.85614	94.91767	1307.49813	1173.26355	-436.67624	1250.02883	957.07504	-415.83502	1274.42428	969.47121	-470.19488	1344.38884	882.62116	-470.83712	1382.74956	763.15529	-454.17933	1353.50632	747.48785	-473.79118	1270.67891	810.45679	-125.91798	1255.50643	802.75179	-325.48184	1274.45058	797.70992	-137.63752	1260.71142	792.88408	-309.04160	
131	1.30000000	1419.42607	457.97547	-94.53673	1443.78414	389.71831	-73.38685	1472.74107	86.83631	-110.40712	1405.19215	53.89625	-145.62137	1579.17221	47.92226	-90.20244	1617.59441	74.55415	-146.99147	1117.74512	455.58174	-366.79308	1102.85903	387.97668	-371.72416	889.86507	154.55844	-337.01292	813.09807	166.22694	-290.52499	931.63871	50.88641	-349.30652	984.58733	50.47688	-294.95341	1463.06903	279.00206	-72.47379	1370.44760	375.35720	-81.98521	1381.85305	260.12944	-85.49089	1035.23397	447.77431	-377.45002	964.14916	348.49557	-376.43429	1382.60151	769.48752	-97.44210	1422.46122	662.46164	-94.77999	1389.43076	629.13608	-47.53567	1296.18614	739.74281	-29.51226	1330.42678	627.94502	-42.80808	1275.60018	708.33678	-397.67979	1236.38300	573.70046	-392.86617	1163.06527	739.54146	-396.39705	1131.76309	601.53903	-379.69256	1348.06095	890.99757	-106.14796	1159.45190	898.19907	-162.77039	1329.80723	873.17717	-365.72882	1151.32495	894.36722	-268.67435	1213.05123	1364.55501	-229.47501	1269.44274	1305.74772	-72.63278	1277.48972	1306.08687	-392.67284	1326.65109	1276.56255	-207.92836	1326.67188	1276.61605	-252.45457	1263.27788	1073.18777	20.80743	1215.92364	965.45075	-21.61217	1232.45616	991.13355	44.22220	1289.13582	884.49400	71.05395	1317.75337	768.80993	82.83232	1275.88464	760.71118	94.32376	1319.06403	1175.08381	-434.37353	1259.85018	959.21571	-414.13311	1283.80446	971.81365	-468.60195	1352.56257	883.93030	-470.41750	1388.88996	763.78535	-454.79211	1359.46411	748.68890	-474.54328	1283.62974	811.96337	-124.19400	1269.31627	803.01601	-323.75640	1287.47316	799.36842	-135.28790	1274.30638	793.16371	-306.81429	
132	1.31000000	1430.68592	459.33405	-93.43617	1453.53024	390.23316	-72.18284	1474.26700	86.79082	-110.22989	1405.62374	54.15275	-145.60253	1579.79362	46.26390	-89.78601	1618.84637	71.82010	-146.76628	1136.75486	453.75157	-367.51856	1119.61426	386.77396	-372.71709	899.55318	160.63328	-336.19430	824.95619	177.70105	-289.06178	934.30847	54.24688	-348.61127	987.85559	50.60970	-295.14922	1470.06328	279.08659	-71.39936	1379.73424	377.59681	-81.01234	1388.41714	262.21997	-84.45624	1053.82831	448.70940	-377.29210	979.57483	351.80505	-375.72403	1395.18165	771.55333	-95.33486	1434.85693	664.46959	-92.90379	1401.58767	631.02072	-46.03670	1308.50223	741.76776	-27.74449	1342.46863	629.93064	-41.60410	1290.41655	708.81404	-396.14036	1253.53248	573.49457	-392.48872	1177.63342	738.23601	-394.53042	1148.46199	599.56941	-379.21822	1360.80478	893.19972	-104.10562	1172.17021	899.65255	-162.48870	1343.21273	873.75847	-363.78857	1164.42840	894.99875	-268.64026	1225.52010	1365.88067	-225.66416	1282.90728	1305.67148	-69.47121	1289.74032	1308.50469	-389.54568	1339.24527	1277.85105	-204.91513	1339.17955	1278.18915	-249.40478	1279.38936	1072.34134	21.89380	1232.08800	964.64958	-20.91967	1249.26155	989.92702	44.89467	1305.58501	882.83835	70.47770	1333.56909	766.73048	81.40054	1291.81463	759.13514	93.65118	1330.59661	1177.29030	-432.12259	1269.69285	961.79865	-412.26385	1293.14803	974.53939	-466.89568	1360.66997	885.62140	-469.94940	1394.74103	764.72455	-455.24769	1365.22208	750.31055	-475.24801	1296.20215	813.92311	-122.41461	1283.07396	803.65680	-321.98676	1300.30214	801.39410	-132.80256	1287.77882	793.87131	-304.44474	
